<?xml version="1.0" encoding="utf-8"?>
<!-- Generator: Adobe Illustrator 18.0.0, SVG Export Plug-In . SVG Version: 6.00 Build 0)  -->
<!DOCTYPE svg PUBLIC "-//W3C//DTD SVG 1.1//EN" "http://www.w3.org/Graphics/SVG/1.1/DTD/svg11.dtd">
<svg version="1.1" id="Layer_1" xmlns="http://www.w3.org/2000/svg" xmlns:xlink="http://www.w3.org/1999/xlink" x="0px" y="0px"
	 viewBox="0 0 100 100" enable-background="new 0 0 100 100" xml:space="preserve">
<path fill="#1A272F" d="M4.4,32.8c0-5,3.6-11.2,7.9-13.7L42.1,1.9c4.3-2.5,11.5-2.5,15.8,0l29.8,17.2c4.3,2.5,7.9,8.7,7.9,13.7v34.4
	c0,5-3.6,11.2-7.9,13.7L57.9,98.1c-4.3,2.5-11.5,2.5-15.8,0L12.3,80.9c-4.3-2.5-7.9-8.7-7.9-13.7V32.8z M37.5,64.5v-22
	c0-0.8-0.7-1.5-1.5-1.5h-2.6c-0.8,0-1.5,0.7-1.5,1.5v22c0,0.8,0.7,1.5,1.5,1.5H36C36.8,66,37.5,65.3,37.5,64.5z M80.1,64.5v-29
	c0-0.8-0.7-1.5-1.5-1.5l-2.5,0c-0.7,0-1.4,0.4-1.7,1L62.8,55.7L51.1,35c-0.3-0.6-1-1-1.7-1H21.4c-0.8,0-1.5,0.7-1.5,1.5v2.6
	c0,0.8,0.7,1.5,1.5,1.5h26L61.7,65c0.2,0.4,0.6,0.7,1.1,0.7c0.4,0,0.9-0.3,1.1-0.7l10.8-19.1v18.6c0,0.8,0.7,1.5,1.5,1.5h2.5
	C79.5,66,80.1,65.3,80.1,64.5z"/>
</svg>
