<?xml version="1.0" encoding="utf-8"?>
<!-- Generator: Adobe Illustrator 18.0.0, SVG Export Plug-In . SVG Version: 6.00 Build 0)  -->
<!DOCTYPE svg PUBLIC "-//W3C//DTD SVG 1.1//EN" "http://www.w3.org/Graphics/SVG/1.1/DTD/svg11.dtd">
<svg version="1.1" id="Layer_1" xmlns="http://www.w3.org/2000/svg" xmlns:xlink="http://www.w3.org/1999/xlink" x="0px" y="0px"
	 viewBox="0 0 100 100" enable-background="new 0 0 100 100" xml:space="preserve">
<path d="M33.5,95.1C21.6,95.1,13,87.5,13,78.5c0-8.9,10.6-16.2,22.5-16.1c2.8,0,5.4,0.5,7.7,1.2c6.4,4.5,11.1,7,12.4,12.1
	c0.2,1,0.4,2.1,0.4,3.2C56,88,50.2,95.1,33.5,95.1 M36.6,42c-8-0.2-15.6-8.9-16.9-19.4c-1.4-10.5,4-18.5,11.9-18.3
	c8,0.2,15.6,8.6,16.9,19.1C49.9,34,44.6,42.3,36.6,42 M53.1,57.6c-2.8-2-8.1-6.8-8.1-9.6c0-3.3,0.9-5,5.9-8.9
	c5.1-4,8.8-9.6,8.8-16.2c0-7.8-3.5-15.4-10-17.9h9.8l6.9-5h-31C21.6,0,8.5,10.5,8.5,22.7c0,12.5,9.5,22.5,23.6,22.5
	c1,0,1.9,0,2.9-0.1c-0.9,1.8-1.6,3.7-1.6,5.8c0,3.5,1.9,6.3,4.2,8.6c-1.8,0-3.5,0.1-5.4,0.1c-17.2,0-30.4,11-30.4,22.3
	C1.8,93,16.3,100,33.5,100C53.1,100,64,88.9,64,77.7C64,68.7,61.3,63.3,53.1,57.6 M98.2,43H86.1V30.9h-9.7V43H64.4v9.7h12.1v12.1
	h9.7V52.7h12.1V43z"/>
</svg>
