<?xml version="1.0" encoding="utf-8"?>
<!-- Generator: Adobe Illustrator 18.0.0, SVG Export Plug-In . SVG Version: 6.00 Build 0)  -->
<!DOCTYPE svg PUBLIC "-//W3C//DTD SVG 1.1//EN" "http://www.w3.org/Graphics/SVG/1.1/DTD/svg11.dtd">
<svg version="1.1" id="Layer_1" xmlns="http://www.w3.org/2000/svg" xmlns:xlink="http://www.w3.org/1999/xlink" x="0px" y="0px"
	 viewBox="0 0 100 100" enable-background="new 0 0 100 100" xml:space="preserve">
<g>
	<g>
		<path fill="#231F20" d="M50,11.7l40,24V90H10V35.7L50,11.7 M50,0L4.9,27.1c-3,1.8-4.9,5.1-4.9,8.6V90c0,5.5,4.5,10,10,10h80
			c5.5,0,10-4.5,10-10V35.7c0-3.5-1.8-6.8-4.9-8.6L50,0L50,0z"/>
	</g>
	<g>
		<path fill="#010101" d="M50,65L10,35L0,35.7V90c0,5.5,4.5,10,10,10h80c5.5,0,10-4.5,10-10V35.7L90,35L50,65z"/>
	</g>
</g>
</svg>
