<?xml version="1.0" encoding="utf-8"?>
<!-- Generator: Adobe Illustrator 18.0.0, SVG Export Plug-In . SVG Version: 6.00 Build 0)  -->
<!DOCTYPE svg PUBLIC "-//W3C//DTD SVG 1.1//EN" "http://www.w3.org/Graphics/SVG/1.1/DTD/svg11.dtd">
<svg version="1.1" id="Layer_1" xmlns="http://www.w3.org/2000/svg" xmlns:xlink="http://www.w3.org/1999/xlink" x="0px" y="0px"
	 viewBox="0 0 100 100" enable-background="new 0 0 100 100" xml:space="preserve">
<path d="M100,22.1h-4c-1.5,0-3.5,2.1-3.5,3.5v49.2c0,1.4,2.1,3.2,3.5,3.2h4v11.7H64.2V77.9h7.5V26.3h-0.4L53.8,89.6H40.2L22.9,26.3
	h-0.4v51.7H30v11.7H0V77.9h3.8c1.6,0,3.7-1.9,3.7-3.2V25.6c0-1.4-2.1-3.5-3.7-3.5H0V10.4h37.5l12.3,45.8h0.3l12.4-45.8H100V22.1z"/>
</svg>
