<svg xmlns="http://www.w3.org/2000/svg" style="display: none;"><defs><clipPath clipPathUnits="userSpaceOnUse" id="TM-clipPath4159"><g transform="matrix(0.20373514,0,0,0.20373514,37.050732,41.124364)" style="text-align:center;fill:#ffffff;fill-opacity:1" id="TM-g4161"><g transform="translate(-391.19068,-581.98933)" id="TM-g4163" style="fill:#ffffff;fill-opacity:1"><g id="TM-g4165" style="fill:#ffffff;fill-opacity:1"><g style="fill:#ffffff;fill-opacity:1" id="TM-g4167"><rect style="fill:#ffffff;fill-opacity:1;stroke:none;stroke-width:1.10000002;stroke-miterlimit:4;stroke-dasharray:none;stroke-opacity:1" id="TM-rect4169" width="12" height="130" x="462" y="559.36224"/><path style="fill:#ffffff;fill-opacity:1;fill-rule:evenodd;stroke:none;stroke-width:1px;stroke-linecap:butt;stroke-linejoin:miter;stroke-opacity:1" d="m 526,678.21935 6,11.14285 70,-130 -12,0 z" id="TM-path4171" inkscape:connector-curvature="0" sodipodi:nodetypes="ccccc"/><path inkscape:connector-curvature="0" style="fill:#ffffff;fill-opacity:1;stroke:none;stroke-width:1.10000002;stroke-miterlimit:4;stroke-dasharray:none;stroke-opacity:1" d="m 590,646.64792 12,-22.28572 0,65 -12,0 z" id="TM-path4173" sodipodi:nodetypes="ccccc"/></g></g><rect style="fill:#ffffff;fill-opacity:1;stroke:none;stroke-width:1.10000002;stroke-miterlimit:4;stroke-dasharray:none;stroke-opacity:1" id="TM-rect4175" width="12" height="36" x="307.5" y="559.36218"/><rect style="fill:#ffffff;fill-opacity:1;stroke:none;stroke-width:1.10000002;stroke-miterlimit:4;stroke-dasharray:none;stroke-opacity:1" id="TM-rect4177" width="12" height="94" x="356.5" y="595.36218"/></g></g></clipPath></defs><symbol viewBox="0 0 100 100" id="icon-arrow_up"><title>arrow_up</title> <g> <path d="M50,8.5L9,100H2L47.5,0H53l45,100h-7L50,8.5z"/> </g> </symbol><symbol viewBox="0 0 20 20" id="icon-arrow"><title>arrow</title> <g> <path d="M10,18.3L18.2,0h1.4l-9.1,20H9.4l-9-20h1.4L10,18.3z"/> </g> </symbol><symbol viewBox="0 0 100 100" id="icon-esagon"><title>esagon</title> <path d="M4.4,32.8c0-5,3.6-11.2,7.9-13.7L42.1,1.9c4.3-2.5,11.5-2.5,15.8,0l29.8,17.2c4.3,2.5,7.9,8.7,7.9,13.7v34.4
	c0,5-3.6,11.2-7.9,13.7L57.9,98.1c-4.3,2.5-11.5,2.5-15.8,0L12.3,80.9c-4.3-2.5-7.9-8.7-7.9-13.7V32.8z M37.5,64.5v-22
	c0-0.8-0.7-1.5-1.5-1.5h-2.6c-0.8,0-1.5,0.7-1.5,1.5v22c0,0.8,0.7,1.5,1.5,1.5H36C36.8,66,37.5,65.3,37.5,64.5z M80.1,64.5v-29
	c0-0.8-0.7-1.5-1.5-1.5l-2.5,0c-0.7,0-1.4,0.4-1.7,1L62.8,55.7L51.1,35c-0.3-0.6-1-1-1.7-1H21.4c-0.8,0-1.5,0.7-1.5,1.5v2.6
	c0,0.8,0.7,1.5,1.5,1.5h26L61.7,65c0.2,0.4,0.6,0.7,1.1,0.7c0.4,0,0.9-0.3,1.1-0.7l10.8-19.1v18.6c0,0.8,0.7,1.5,1.5,1.5h2.5
	C79.5,66,80.1,65.3,80.1,64.5z"/> </symbol><symbol viewBox="0 0 100 100" id="icon-icon_e"><title>icon_e</title> <path d="M90,10H10C4.5,10,0,14.5,0,20v60c0,5.5,4.5,10,10,10h80c5.5,0,10-4.5,10-10V20C100,14.5,95.5,10,90,10z
	 M90,30L50,55L10,30V20l40,25l40-25V30z"/> </symbol><symbol viewBox="0 0 100 100" id="icon-icon_email"><title>icon_email</title> <g> <g> <path d="M50,11.7l40,24V90H10V35.7L50,11.7 M50,0L4.9,27.1c-3,1.8-4.9,5.1-4.9,8.6V90c0,5.5,4.5,10,10,10h80
			c5.5,0,10-4.5,10-10V35.7c0-3.5-1.8-6.8-4.9-8.6L50,0L50,0z"/> </g> <g> <path d="M50,65L10,35L0,35.7V90c0,5.5,4.5,10,10,10h80c5.5,0,10-4.5,10-10V35.7L90,35L50,65z"/> </g> </g> </symbol><symbol viewBox="0 0 100 100" id="icon-icon_f"><title>icon_f</title> <path d="M25.9,33.1h10.3V23c0-4.4,0.1-11.3,3.3-15.5C42.9,3,47.6,0,55.6,0c13,0,18.5,1.9,18.5,1.9l-2.6,15.3c0,0-4.3-1.2-8.3-1.2
	c-4,0-7.6,1.4-7.6,5.5v11.7h16.5l-1.2,15H55.6v52H36.2V48H25.9V33.1z"/> </symbol><symbol viewBox="0 0 100 100" id="icon-icon_g"><title>icon_g</title> <path d="M33.5,95.1C21.6,95.1,13,87.5,13,78.5c0-8.9,10.6-16.2,22.5-16.1c2.8,0,5.4,0.5,7.7,1.2c6.4,4.5,11.1,7,12.4,12.1
	c0.2,1,0.4,2.1,0.4,3.2C56,88,50.2,95.1,33.5,95.1 M36.6,42c-8-0.2-15.6-8.9-16.9-19.4c-1.4-10.5,4-18.5,11.9-18.3
	c8,0.2,15.6,8.6,16.9,19.1C49.9,34,44.6,42.3,36.6,42 M53.1,57.6c-2.8-2-8.1-6.8-8.1-9.6c0-3.3,0.9-5,5.9-8.9
	c5.1-4,8.8-9.6,8.8-16.2c0-7.8-3.5-15.4-10-17.9h9.8l6.9-5h-31C21.6,0,8.5,10.5,8.5,22.7c0,12.5,9.5,22.5,23.6,22.5
	c1,0,1.9,0,2.9-0.1c-0.9,1.8-1.6,3.7-1.6,5.8c0,3.5,1.9,6.3,4.2,8.6c-1.8,0-3.5,0.1-5.4,0.1c-17.2,0-30.4,11-30.4,22.3
	C1.8,93,16.3,100,33.5,100C53.1,100,64,88.9,64,77.7C64,68.7,61.3,63.3,53.1,57.6 M98.2,43H86.1V30.9h-9.7V43H64.4v9.7h12.1v12.1
	h9.7V52.7h12.1V43z"/> </symbol><symbol viewBox="0 0 100 100" id="icon-icon_i"><title>icon_i</title> <path d="M80.7,0H19.3C8.7,0,0,8.7,0,19.3v20.4v40.9C0,91.3,8.7,100,19.3,100h61.3c10.7,0,19.3-8.7,19.3-19.3V39.7V19.3
	C100,8.7,91.3,0,80.7,0z M86.2,11.5l2.2,0v2.2v14.7l-16.9,0.1l-0.1-17L86.2,11.5z M35.7,39.7c3.2-4.4,8.4-7.3,14.3-7.3
	c5.9,0,11.1,2.9,14.3,7.3c2.1,2.9,3.3,6.4,3.3,10.3c0,9.7-7.9,17.6-17.6,17.6c-9.7,0-17.6-7.9-17.6-17.6
	C32.4,46.2,33.6,42.6,35.7,39.7z M90.3,80.7c0,5.3-4.3,9.6-9.6,9.6H19.3c-5.3,0-9.6-4.3-9.6-9.6V39.7h14.9c-1.3,3.2-2,6.6-2,10.3
	c0,15.1,12.3,27.3,27.3,27.3c15.1,0,27.3-12.3,27.3-27.3c0-3.6-0.7-7.1-2-10.3h14.9V80.7z"/> </symbol><symbol viewBox="0 0 100 100" id="icon-icon_l"><title>icon_l</title> <path d="M22,95.9H2.5V33.5H22V95.9z M11.8,25.7h-0.1C4.6,25.7,0,21,0,14.9C0,8.8,4.7,4.1,11.9,4.1c7.2,0,11.6,4.7,11.7,10.8
	C23.7,20.9,19.1,25.7,11.8,25.7z M100,95.9H77.9V63.6c0-8.4-3.5-14.2-11.1-14.2c-5.8,0-9,3.9-10.6,7.6c-0.6,1.3-0.5,3.2-0.5,5.1
	v33.8H33.9c0,0,0.3-57.2,0-62.4h21.9v9.8c1.3-4.3,8.3-10.4,19.5-10.4c13.8,0,24.7,9,24.7,28.3V95.9z"/> </symbol><symbol viewBox="0 0 100 100" id="icon-icon_m"><title>icon_m</title> <path d="M100,22.1h-4c-1.5,0-3.5,2.1-3.5,3.5v49.2c0,1.4,2.1,3.2,3.5,3.2h4v11.7H64.2V77.9h7.5V26.3h-0.4L53.8,89.6H40.2L22.9,26.3
	h-0.4v51.7H30v11.7H0V77.9h3.8c1.6,0,3.7-1.9,3.7-3.2V25.6c0-1.4-2.1-3.5-3.7-3.5H0V10.4h37.5l12.3,45.8h0.3l12.4-45.8H100V22.1z"/> </symbol><symbol viewBox="0 0 100 100" id="icon-icon_message"><title>icon_message</title> <path d="M90-1H10C4.5-1,0,3.5,0,9v90l20-20h70c5.5,0,10-4.5,10-10V9C100,3.5,95.5-1,90-1z"/> </symbol><symbol viewBox="0 0 100 100" id="icon-icon_t"><title>icon_t</title> <path d="M100,19c-3.7,1.6-7.6,2.7-11.8,3.2c4.2-2.5,7.5-6.6,9-11.3c-4,2.4-8.4,4.1-13,5c-3.7-4-9.1-6.5-15-6.5
	c-11.3,0-20.5,9.2-20.5,20.5c0,1.6,0.2,3.2,0.5,4.7c-17-0.9-32.2-9-42.3-21.4c-1.8,3-2.8,6.6-2.8,10.3c0,7.1,3.6,13.4,9.1,17.1
	C10,40.4,6.8,39.5,4,38v0.3c0,9.9,7.1,18.2,16.5,20.1c-1.7,0.5-3.5,0.7-5.4,0.7c-1.3,0-2.6-0.1-3.9-0.4c2.6,8.1,10.2,14.1,19.2,14.2
	c-7,5.5-15.9,8.8-25.5,8.8c-1.7,0-3.3-0.1-4.9-0.3c9.1,5.8,19.9,9.2,31.4,9.2c37.7,0,58.4-31.3,58.4-58.4c0-0.9,0-1.8-0.1-2.7
	C93.8,26.7,97.3,23.1,100,19"/> </symbol><symbol viewBox="0 0 100 100" id="icon-TM"><title>TM</title><metadata id="TM-metadata9"><rdf:RDF><cc:Work rdf:about=""><dc:format>image/svg+xml</dc:format><dc:type rdf:resource="http://purl.org/dc/dcmitype/StillImage"/><dc:title>TM</dc:title></cc:Work></rdf:RDF></metadata><sodipodi:namedview pagecolor="#ffffff" bordercolor="#666666" borderopacity="1" objecttolerance="10" gridtolerance="10" guidetolerance="10" inkscape:pageopacity="0" inkscape:pageshadow="2" inkscape:window-width="1600" inkscape:window-height="837" id="TM-namedview5" showgrid="false" inkscape:zoom="3.337544" inkscape:cx="103.33433" inkscape:cy="80.653096" inkscape:window-x="-8" inkscape:window-y="-8" inkscape:window-maximized="1" inkscape:current-layer="Layer_1"/><g id="TM-g5691" transform="matrix(0.27164686,0,0,0.27164603,-73.531409,-119.60551)"><g id="TM-g5685"><g id="TM-g5651"><rect y="559.36224" x="462" height="130" width="12" id="TM-rect4900-7-0-6"/><path sodipodi:nodetypes="ccccc" inkscape:connector-curvature="0" id="TM-path4980-0" d="m 526,678.21935 6,11.14285 70,-130 -12,0 z"/><path sodipodi:nodetypes="ccccc" id="TM-rect4900-7-0-4-4-3" d="m 590,646.64792 12,-22.28572 0,65 -12,0 z" inkscape:connector-curvature="0"/></g></g><rect y="559.36218" x="307.5" height="36" width="12" id="TM-rect4900-79"/><rect y="595.36218" x="356.5" height="94" width="12" id="TM-rect4900-7-5"/></g></symbol></svg>